<svg width="131" height="36" viewBox="0 0 131 36" fill="none" xmlns="http://www.w3.org/2000/svg">
<path d="M92.4995 11.6888C91.7077 10.8699 90.7189 10.4517 89.7127 10.51H87.7047C87.2761 10.4421 86.8425 10.5618 86.471 10.8509C86.2341 11.3115 86.1345 11.8708 86.1914 12.4219V22.7659C86.174 23.1825 86.2148 23.5997 86.312 23.9968C86.373 24.1899 86.4792 24.3527 86.6151 24.4611C86.751 24.5696 86.9095 24.6181 87.0678 24.6C87.2526 24.6086 87.4336 24.5282 87.5767 24.3741C87.7197 24.2199 87.815 24.0025 87.8449 23.7624C87.9209 23.3381 87.8861 19.9109 87.8861 19.8587C89.1948 19.9499 90.5061 19.7553 91.7666 19.2831C92.3778 18.968 92.8936 18.398 93.2351 17.6604C93.5766 16.9228 93.7249 16.0583 93.6573 15.1992C93.6801 14.5368 93.5875 13.8762 93.3868 13.2678C93.1862 12.6595 92.8828 12.1195 92.4995 11.6888ZM91.4134 17.2923C90.9051 17.7601 90.2926 17.991 89.6732 17.9479H87.9207V12.5263H89.6536C90.2752 12.4852 90.8903 12.711 91.406 13.1697C91.6328 13.412 91.8112 13.7234 91.9257 14.0772C92.0402 14.4309 92.0872 14.8161 92.0628 15.1992C92.0891 15.5909 92.044 15.9852 91.9311 16.3493C91.8181 16.7133 91.6405 17.0367 91.4134 17.2923Z" fill="white"/>
<path d="M111.684 11.6886C110.892 10.8702 109.903 10.452 108.897 10.5099H106.886C106.458 10.4422 106.024 10.5619 105.652 10.8508C105.416 11.3121 105.317 11.8711 105.374 12.4218V22.7658C105.356 23.1824 105.396 23.5996 105.494 23.9967C105.555 24.191 105.661 24.3546 105.798 24.4632C105.935 24.5718 106.095 24.6196 106.254 24.5999C106.439 24.6085 106.619 24.5281 106.762 24.3739C106.905 24.2197 107.001 24.0024 107.031 23.7623C107.106 23.3379 107.071 19.9108 107.071 19.8586C108.38 19.9496 109.691 19.7551 110.951 19.283C111.562 18.9678 112.078 18.3978 112.419 17.6603C112.761 16.9227 112.91 16.0583 112.842 15.1991C112.865 14.5366 112.772 13.876 112.571 13.2677C112.37 12.6594 112.067 12.1195 111.684 11.6886ZM110.598 17.2922C110.089 17.7599 109.476 17.9907 108.856 17.9478H107.105V12.5262H108.836C109.457 12.4853 110.072 12.7112 110.588 13.1695C110.815 13.4118 110.993 13.7233 111.107 14.0771C111.222 14.4308 111.269 14.816 111.245 15.1991C111.271 15.5905 111.226 15.9844 111.113 16.3483C111.001 16.7123 110.824 17.0358 110.598 17.2922Z" fill="white"/>
<path d="M100.708 14.7791C99.9918 12.8579 99.5737 11.7277 99.4538 11.3885C99.3711 11.1199 99.2491 10.8754 99.0948 10.6686C98.9449 10.481 98.7454 10.3774 98.5384 10.3798C98.4308 10.3775 98.3239 10.4041 98.2244 10.4582C98.1249 10.5122 98.0349 10.5926 97.9599 10.6941C97.8248 10.8949 97.7171 11.125 97.6416 11.3741C97.2041 12.5095 96.7729 13.6448 96.3479 14.7802C95.5783 16.8399 94.9275 18.6381 94.3955 20.1749C93.967 21.2471 93.6337 22.3807 93.4024 23.5533C93.4013 23.6961 93.4247 23.8375 93.471 23.9666C93.5174 24.0958 93.5854 24.2094 93.67 24.2989C93.8374 24.4932 94.0531 24.6003 94.2763 24.6C94.5826 24.6 94.9015 24.2422 95.2331 23.5267C95.5253 22.6528 95.8235 21.7793 96.1275 20.9061H100.946C100.985 21.0298 101.204 21.6934 101.602 22.8969C102.039 24.0308 102.438 24.5985 102.797 24.6C103.026 24.6037 103.249 24.4966 103.423 24.2989C103.507 24.2095 103.576 24.096 103.622 23.9669C103.669 23.8378 103.693 23.6962 103.692 23.5533C103.455 22.3712 103.115 21.2291 102.679 20.1494C102.387 19.3088 101.73 17.5187 100.708 14.7791ZM96.8866 18.812L98.5392 14.1759L100.191 18.812H96.8866Z" fill="white"/>
<path d="M120.114 12.6058C120.411 12.6234 120.708 12.5702 120.991 12.449C121.123 12.3778 121.234 12.2536 121.309 12.094C121.384 11.9343 121.419 11.7476 121.408 11.5605C121.426 11.39 121.403 11.2162 121.343 11.0636C121.282 10.911 121.187 10.7872 121.07 10.7094C120.785 10.5643 120.48 10.4973 120.174 10.5127H116.093C115.684 10.4491 115.27 10.5692 114.919 10.8537C114.687 11.2876 114.588 11.8207 114.641 12.3468V22.6653C114.586 23.1866 114.686 23.7157 114.919 24.143C115.273 24.4175 115.685 24.5322 116.093 24.4695H120.194C120.496 24.4855 120.797 24.4235 121.08 24.2873C121.195 24.2103 121.288 24.0882 121.347 23.9379C121.406 23.7877 121.427 23.6169 121.408 23.4497C121.42 23.2551 121.385 23.0604 121.306 22.8951C121.226 22.7297 121.109 22.6027 120.97 22.5332C120.692 22.4274 120.403 22.3829 120.114 22.402H116.372V18.3683H119.377C119.639 18.3843 119.901 18.3468 120.153 18.2571C120.273 18.2057 120.375 18.1025 120.444 17.9644C120.513 17.8264 120.544 17.6618 120.532 17.4974C120.532 17.0963 120.429 16.8484 120.223 16.7518C119.95 16.6442 119.664 16.596 119.379 16.6086H116.373V12.6025L120.114 12.6058Z" fill="white"/>
<path d="M130.2 22.5713C129.889 22.4417 129.562 22.3838 129.235 22.4001H125.512V12.2172C125.528 11.8009 125.487 11.384 125.393 10.9861C125.338 10.7927 125.236 10.629 125.103 10.5198C124.97 10.4107 124.813 10.3625 124.657 10.3829C124.515 10.3587 124.372 10.3922 124.246 10.4786C124.119 10.565 124.016 10.7003 123.95 10.8662C123.826 11.269 123.768 11.7019 123.781 12.1361V22.6657C123.727 23.1869 123.827 23.7154 124.06 24.1431C124.414 24.4172 124.826 24.5321 125.234 24.4699H129.295C129.516 24.4742 129.736 24.4477 129.952 24.391C130.125 24.3649 130.283 24.2526 130.394 24.0774C130.505 23.9022 130.561 23.6775 130.549 23.4498C130.545 22.9743 130.432 22.6835 130.2 22.5713Z" fill="white"/>
<path d="M51.1664 13.872C51.5453 14.3758 51.9764 14.8071 52.4467 15.153C52.6541 15.1516 52.8529 15.0435 53.0006 14.8519C53.0782 14.765 53.1405 14.6569 53.1835 14.5354C53.2265 14.4138 53.2491 14.2816 53.2497 14.1475C53.2497 13.1603 52.6636 12.2555 51.4915 11.4334C50.6461 10.7942 49.6959 10.4326 48.7217 10.3791C48.0034 10.3685 47.2911 10.5503 46.6278 10.9131C45.9646 11.276 45.3643 11.8123 44.8635 12.4898C44.3447 13.1358 43.9328 13.9159 43.6535 14.7808C43.3742 15.6458 43.2335 16.5773 43.2403 17.517C43.2255 18.4647 43.3633 19.4058 43.6448 20.2784C43.9263 21.1509 44.3452 21.9351 44.8736 22.5794C45.3923 23.2456 46.0063 23.7698 46.68 24.1216C47.3537 24.4735 48.0738 24.6459 48.7986 24.6291C49.7509 24.5847 50.681 24.2401 51.5109 23.6239C52.6577 22.8359 53.2306 21.9726 53.2295 21.0343C53.2253 20.7697 53.1432 20.5176 53.0006 20.331C52.9377 20.2309 52.859 20.1497 52.7701 20.0931C52.6813 20.0366 52.5841 20.0061 52.4854 20.0033C51.874 20.5736 51.2692 21.1433 50.6708 21.7129C50.0764 22.2302 49.3778 22.5013 48.6652 22.4908C47.6759 22.4887 46.7272 21.9722 46.0261 21.0541C45.3249 20.136 44.9279 18.8906 44.9216 17.5891C44.9067 16.9248 44.9966 16.2636 45.1855 15.6471C45.3745 15.0307 45.6584 14.4725 46.0195 14.0076C46.3835 13.5389 46.8158 13.1716 47.2903 12.9278C47.7647 12.6841 48.2717 12.5687 48.7808 12.5888C49.6692 12.614 50.519 13.0711 51.1664 13.872Z" fill="white"/>
<path d="M60.3733 12.5519C60.6749 12.5693 60.9763 12.515 61.2633 12.3919C61.3982 12.321 61.5121 12.1946 61.5882 12.0317C61.6643 11.8688 61.6984 11.6781 61.6855 11.4876C61.7036 11.3147 61.6804 11.1387 61.6189 10.984C61.5575 10.8293 61.4609 10.7035 61.3427 10.6243C61.0525 10.4766 60.7425 10.4086 60.4316 10.4244H56.2887C55.8734 10.3604 55.4537 10.4815 55.0971 10.7686C54.861 11.2092 54.7595 11.7508 54.8126 12.2853V22.7615C54.7573 23.2916 54.8591 23.8295 55.0971 24.2635C55.456 24.5426 55.8745 24.6594 56.2887 24.5966H60.4526C60.7591 24.6132 61.0649 24.5502 61.3528 24.4111C61.4689 24.3328 61.5636 24.2087 61.6233 24.056C61.6829 23.9034 61.7046 23.73 61.6855 23.5602C61.6984 23.3626 61.6619 23.165 61.5816 22.9972C61.5013 22.8293 61.3816 22.7003 61.2406 22.6302C60.9584 22.5221 60.6644 22.4768 60.3708 22.4959H56.5708V18.401H59.6226C59.888 18.4188 60.1538 18.3836 60.4112 18.2965C60.5317 18.2431 60.635 18.138 60.7046 17.9979C60.7741 17.8579 60.8059 17.691 60.7947 17.5243C60.7947 17.1166 60.6907 16.8646 60.4821 16.7668C60.2035 16.6568 59.9133 16.6071 59.6226 16.6201H56.5708V12.5519H60.3733Z" fill="white"/>
<path d="M69.4334 11.584C68.5592 10.7891 67.5117 10.3912 66.45 10.4508H64.7062C64.2748 10.383 63.8385 10.5033 63.4641 10.7931C63.2264 11.2578 63.1266 11.8212 63.1837 12.3763V22.7846C63.1662 23.2037 63.2067 23.6234 63.3035 24.0233C63.365 24.2172 63.4718 24.3804 63.6084 24.4893C63.745 24.5981 63.9045 24.6468 64.0636 24.6287C64.2463 24.6217 64.4219 24.5353 64.5631 24.3827C64.7044 24.2301 64.803 24.0201 64.8437 23.7857C64.9797 23.1967 65.0406 22.582 65.0237 21.9669C65.0237 21.6669 65.0076 21.2771 64.9746 20.7938C64.9417 20.3105 64.9241 19.9818 64.9241 19.8063H66.4862C66.8865 20.6491 67.2941 21.4918 67.709 22.3346C68.5219 23.8818 69.1227 24.6555 69.5111 24.6555C69.6184 24.6581 69.7247 24.6285 69.822 24.569C69.9193 24.5095 70.005 24.4217 70.0727 24.3122C70.217 24.0927 70.2954 23.8115 70.2931 23.5213C70.1153 22.7231 69.8074 21.9853 69.3911 21.3593C69.2172 21.0268 68.8696 20.4209 68.3483 19.5418C69.0394 19.1833 69.6424 18.582 70.0913 17.8032C70.6054 16.8512 70.8235 15.6764 70.7007 14.5198C70.5779 13.3631 70.1236 12.3121 69.4309 11.5818L69.4334 11.584ZM68.3821 17.1843C67.8968 17.6651 67.3004 17.9114 66.6932 17.8819H64.9307V12.4007H66.5522C67.1959 12.3605 67.8322 12.5964 68.3652 13.0728C68.5812 13.3337 68.7538 13.6502 68.8726 14.0028C68.9914 14.3554 69.0538 14.7365 69.0557 15.1222C69.0576 15.5078 68.999 15.8899 68.8837 16.2445C68.7684 16.5991 68.5988 16.9187 68.3854 17.1832L68.3821 17.1843Z" fill="white"/>
<path d="M76.9681 10.4464C75.7205 10.448 74.512 11.0186 73.5483 12.061C72.5846 13.1034 71.9253 14.5533 71.6829 16.1633C71.4405 17.7734 71.6298 19.4441 72.2187 20.8911C72.8076 22.3381 73.7595 23.4719 74.9125 24.0992C76.0654 24.7264 77.3479 24.8083 78.5416 24.3311C79.7353 23.8539 80.7665 22.8469 81.4593 21.4818C82.152 20.1168 82.4636 18.4781 82.341 16.8446C82.2184 15.2112 81.6691 13.6842 80.7868 12.5237C80.2925 11.8515 79.6985 11.3202 79.0416 10.9628C78.3846 10.6054 77.6789 10.4297 76.9681 10.4464ZM79.6199 21.0126C79.2762 21.4787 78.8636 21.8472 78.4076 22.0956C77.9516 22.344 77.4616 22.467 76.9681 22.4569C76.4772 22.4687 75.9897 22.3464 75.5365 22.0978C75.0833 21.8492 74.6743 21.4797 74.3352 21.0126C73.6404 20.0881 73.2516 18.8398 73.2535 17.5398C73.2554 16.2398 73.6478 14.9934 74.3453 14.0724C74.6846 13.6097 75.0924 13.2436 75.5435 12.9965C75.9947 12.7494 76.4795 12.6267 76.9681 12.636C77.7085 12.6281 78.4338 12.9108 79.0515 13.4478C79.6691 13.9848 80.151 14.7518 80.4356 15.651C80.7203 16.5501 80.7946 17.5406 80.6492 18.4956C80.5039 19.4506 80.1456 20.3269 79.6199 21.0126Z" fill="white"/>
<path d="M33.0728 22.1331H32.1929C29.9255 22.1331 27.659 22.1331 25.3925 22.1431C24.8073 22.1431 24.3266 22.4097 24.3351 23.3341C24.3435 24.2584 24.8165 24.4749 25.4135 24.4737C26.6791 24.4737 27.9458 24.4737 29.2136 24.4737H33.0981C33.6774 24.4737 34.2017 24.3206 34.2042 23.3796C34.2068 22.4386 33.7061 22.1331 33.0728 22.1331Z" fill="#100B00"/>
<path d="M33.0728 17.3324H32.5914C30.1746 17.3324 27.8161 17.3257 25.3925 17.3424C24.8073 17.3424 24.3266 17.6079 24.3351 18.5334C24.3435 19.4588 24.8165 19.6742 25.4135 19.672C26.6791 19.672 27.9458 19.672 29.2136 19.672H33.0981C33.6774 19.672 34.2017 19.5188 34.2042 18.5778C34.2068 17.6369 33.7061 17.3335 33.0728 17.3324Z" fill="#100B00"/>
<path d="M20.0165 -0.000488281C17.2902 0.0748633 14.6547 1.30274 12.4999 3.5016C10.3452 5.70045 8.78578 8.75346 8.05232 12.2088C5.93451 12.5381 3.98688 13.8978 2.59264 16.0206C1.1984 18.1435 0.458336 20.8759 0.517994 23.6804C0.503948 26.6998 1.36491 29.6129 2.9256 31.827C3.30893 32.2359 3.7451 32.5504 4.21331 32.7556C7.17903 33.8932 9.6938 31.8558 10.9081 30.5915C11.841 29.6366 12.6147 28.4394 13.1807 27.0742C13.4322 26.4971 13.6437 25.8915 13.813 25.2646C13.8814 25.018 13.9821 24.6313 13.9821 24.6313L10.6042 21.7774L19.4263 18.6312L19.438 18.7489C19.8501 17.8235 20.2589 16.9568 20.5874 16.3713C22.3405 13.2462 24.4464 10.8468 27.4552 9.95138C28.0903 9.83743 28.7297 9.77013 29.3705 9.75013C29.9985 9.65759 30.6324 9.65759 31.2604 9.75013C30.287 6.88455 28.7116 4.44438 26.7196 2.71694C24.7276 0.989495 22.4021 0.0468332 20.0165 -0.000488281Z" fill="white"/>
<path d="M31.2599 9.70281C29.9921 9.47721 28.7042 9.5472 27.4549 9.90948C24.6468 10.8747 22.2038 13.1574 20.586 16.3275C20.1691 17.0683 19.7815 17.837 19.4249 18.6305L20.6654 30.3511L17.4835 27.6624C17.4835 27.6624 17.3306 28.1235 17.2369 28.3556C16.2311 30.5974 14.8045 32.4619 13.094 33.7704C12.3326 34.332 11.5159 34.7526 10.667 35.0202L29.3033 35.0381C29.4976 35.0381 29.6918 35.0282 29.8835 35.0148C30.0287 35.0248 30.1765 35.0303 30.3243 35.0303C35.3142 35.0303 39.3599 29.3467 39.3599 22.3333C39.3695 19.3056 38.5599 16.3723 37.0758 14.0582C35.5917 11.7441 33.53 10.2001 31.2599 9.70281ZM28.4665 29.1712C27.1703 29.1712 26.6805 29.1712 25.4146 29.1712C24.8176 29.1712 24.3446 28.9567 24.3362 28.0302C24.3278 27.1036 24.8074 26.8426 25.3934 26.8392C27.953 26.8248 25.8841 26.828 28.4436 26.8314C29.0778 26.8314 29.5727 27.1281 29.5701 28.0747C29.5676 29.0212 29.045 29.1712 28.4665 29.1712ZM25.4146 24.4275C24.8176 24.4275 24.3446 24.2162 24.3362 23.2897C24.3278 22.3631 24.8074 22.1023 25.3934 22.099C27.6594 22.0842 29.9261 22.0808 32.1938 22.0889H33.0737C33.707 22.0889 34.2021 22.3854 34.2012 23.3331C34.2004 24.2807 33.6742 24.4275 33.0949 24.4275H29.2104M33.0949 19.6259H29.2104C27.9454 19.6259 26.6787 19.6259 25.4103 19.6259C24.8133 19.6259 24.3405 19.4147 24.3321 18.486C24.3236 17.5572 24.8032 17.2983 25.3893 17.295C27.812 17.2794 30.1705 17.2819 32.5882 17.2852H33.0696C33.7029 17.2852 34.1977 17.5817 34.1969 18.5304C34.1961 19.4792 33.6734 19.6303 33.0949 19.6303V19.6259Z" fill="white"/>
</svg>
