<?xml version="1.0" encoding="utf-8"?>
<!-- Generator: Adobe Illustrator 25.1.0, SVG Export Plug-In . SVG Version: 6.00 Build 0)  -->
<svg version="1.1" id="Layer_1" xmlns="http://www.w3.org/2000/svg" xmlns:xlink="http://www.w3.org/1999/xlink" x="0px" y="0px"
	 viewBox="0 0 141.2599945 42.5699997" style="enable-background:new 0 0 141.2599945 42.5699997;" xml:space="preserve">
<style type="text/css">
	.st0{fill:#A4A5A5;}
	.st1{fill:#FFFFFF;}
</style>
<g>
	<rect x="0.0461022" y="7.511847" class="st0" width="35.5379257" height="27.7728081"/>
	<rect x="38.3320847" y="7.511847" class="st0" width="102.8818054" height="27.7728081"/>
	<path class="st1" d="M13.636898,22.1681004c0.1915874-0.4462719,0.3130751-0.9300232,0.3061113-1.4487076
		c-0.0280666-2.0003033-1.668458-3.6033878-3.6687403-3.5753212c-1.787612,0.0211029-3.2482033,1.341341-3.5238938,3.0472031
		c-0.3645015-0.1168003-0.7454185-0.1915874-1.1496768-0.1869774c-2.0002825,0.0233593-3.6033676,1.6685543-3.5800076,3.6687603
		C2.0487578,25.6732445,3.693856,27.276329,5.694139,27.248455c0.3715806-0.0049,0.724412-0.0819435,1.0609431-0.1893101
		c0.2803974,1.7455006,1.7923183,3.0750751,3.612607,3.0494576c2.0003023-0.0233593,3.5986805-1.668457,3.5753202-3.6688557
		c-0.0069637-0.4860096-0.1285667-0.9369869-0.3108177-1.3553658H26.732254v5.0242214h2.0190315v-2.1638985h1.5703125v2.1638985
		h2.0189362v-5.0242214h1.2712784v-2.9162807H13.636898z M5.6427121,25.1593418
		c-0.8458996,0-1.5282211-0.6872005-1.5282211-1.5377121c0-0.841114,0.6823215-1.5283165,1.5282211-1.5283165
		c0.8506255,0,1.5329275,0.6872025,1.5329275,1.5283165C7.1756396,24.4721413,6.4933376,25.1593418,5.6427121,25.1593418z
		 M10.3162632,19.2331829c0.850625,0,1.5330238,0.6870098,1.5330238,1.5282993c0,0.8505287-0.6823988,1.5375385-1.5330238,1.5375385
		c-0.8458996,0-1.5282021-0.6870098-1.5282021-1.5375385C8.7880611,19.9201927,9.4703636,19.2331829,10.3162632,19.2331829z
		 M10.3162632,28.0194912c-0.8458996,0-1.5282021-0.6870098-1.5282021-1.5375385
		c0-0.8412895,0.6823025-1.5283184,1.5282021-1.5283184c0.850625,0,1.5330238,0.6870289,1.5330238,1.5283184
		C11.849287,27.3324814,11.1668882,28.0194912,10.3162632,28.0194912z"/>
	<path class="st1" d="M70.2035065,16.1415195c-3.6944504,0-6.6901321,2.9957752-6.6901321,6.6902294
		c0,3.6969242,2.9956818,6.6926804,6.6901321,6.6926804c3.6968307,0,6.6925812-2.9957561,6.6925812-6.6926804
		C76.8960876,19.1372948,73.9003372,16.1415195,70.2035065,16.1415195z M70.2035065,27.8348866
		c-2.7619781,0-5.0006638-2.2386856-5.0006638-5.0031376c0-2.761982,2.2386856-5.0006676,5.0006638-5.0006676
		c2.7643585,0,5.0030212,2.2386856,5.0030212,5.0006676C75.2065277,25.5962009,72.967865,27.8348866,70.2035065,27.8348866z
		 M84.7991104,16.1415195c-3.6944733,0-6.6902466,2.9957752-6.6902466,6.6902294v12.4482002h1.6895599V27.236784
		c1.2267227,1.3926716,3.0004807,2.2876453,5.0006866,2.2876453c3.6967163,0,6.6926804-2.9957561,6.6926804-6.6926804
		C91.4917908,19.1372948,88.4958267,16.1415195,84.7991104,16.1415195z M84.7991104,27.8348866
		c-2.762001,0-5.0006866-2.2386856-5.0006866-5.0031376c0-2.761982,2.2386856-5.0006676,5.0006866-5.0006676
		c2.7644348,0,5.0031204,2.2386856,5.0031204,5.0006676C89.8022308,25.5962009,87.5635452,27.8348866,84.7991104,27.8348866z
		 M99.3945999,16.1415195c-3.6944504,0-6.690033,2.9957752-6.690033,6.6902294v12.4482002h1.6893692V27.236784
		c1.2268906,1.3926716,3.0004807,2.2876453,5.0006638,2.2876453c3.6969299,0,6.6926804-2.9957561,6.6926804-6.6926804
		C106.0872803,19.1372948,103.0915298,16.1415195,99.3945999,16.1415195z M99.3945999,27.8348866
		c-2.7619781,0-5.0006638-2.2386856-5.0006638-5.0031376c0-2.761982,2.2386856-5.0006676,5.0006638-5.0006676
		c2.7646484,0,5.0033112,2.2386856,5.0033112,5.0006676C104.3979111,25.5962009,102.1592484,27.8348866,99.3945999,27.8348866z
		 M113.990303,16.1415195c-3.6944733,0-6.6902466,2.9957752-6.6902466,6.6902294
		c0,3.6969242,2.9957733,6.6926804,6.6902466,6.6926804h5.2789078v-1.6895428h-5.2789078
		c-1.0748901,0-2.0655594-0.3458672-2.8812485-0.9230595l8.1601562-8.1483707
		C118.0447464,17.1791019,116.1470261,16.1415195,113.990303,16.1415195z M109.9124832,25.7154503
		c-0.5771942-0.815691-0.9228668-1.8063622-0.9228668-2.8837013c0-2.761982,2.2384949-5.0006676,5.0006866-5.0006676
		c1.0750656,0,2.0493622,0.3692265,2.862587,0.9487724L109.9124832,25.7154503z M49.789402,21.3947105
		c0,4.4913979,3.6383209,8.1297188,8.1250114,8.1297188h3.8696442v-1.6895428h-3.8696442
		c-3.5566673,0-6.4355469-2.8812523-6.4355469-6.440176c0-3.5519409,2.8788795-6.4331913,6.4355469-6.4331913h3.8696442v-1.6895618
		h-3.8696442C53.4277229,13.2719574,49.789402,16.9103947,49.789402,21.3947105z M127.1908646,27.8348866
		c-2.762001,0-5.0006638-2.2386856-5.0006638-5.0031376v-9.5597916h-1.6895599v9.5597916
		c0,3.6969242,2.9957504,6.6926804,6.6902237,6.6926804h2.565712v-1.6895428H127.1908646z"/>
</g>
</svg>
