<svg width="127" height="34" viewBox="0 0 127 34" fill="none" xmlns="http://www.w3.org/2000/svg">
<path d="M32.6548 -0.000488281H0.945312V33.2264H32.6548V-0.000488281Z" fill="#100B00"/>
<path d="M126.905 -0.000488281H35.1064V33.2264H126.905V-0.000488281Z" fill="#100B00"/>
<path d="M18.0008 15.9132C18.1717 15.3793 18.2801 14.8005 18.2739 14.18C18.2489 11.7869 16.7852 9.86896 15.0004 9.90253C13.4054 9.92778 12.1021 11.5073 11.8561 13.5482C11.5309 13.4084 11.191 13.3189 10.8303 13.3245C9.04551 13.3524 7.61512 15.3207 7.63597 17.7137C7.66101 20.1067 9.12888 22.0246 10.9137 21.9912C11.2452 21.9854 11.5601 21.8932 11.8603 21.7647C12.1105 23.853 13.4596 25.4437 15.0838 25.4131C16.8686 25.3851 18.2948 23.417 18.2739 21.0237C18.2677 20.4423 18.1592 19.9027 17.9966 19.4022H29.6854V25.4131H31.4869V22.8242H32.8881V25.4131H34.6895V19.4022H35.8238V15.9132H18.0008ZM10.8678 19.4919C10.113 19.4919 9.5042 18.6697 9.5042 17.6522C9.5042 16.6459 10.113 15.8237 10.8678 15.8237C11.6268 15.8237 12.2356 16.6459 12.2356 17.6522C12.2356 18.6697 11.6268 19.4919 10.8678 19.4919ZM15.0379 12.4019C15.7969 12.4019 16.4057 13.2238 16.4057 14.2303C16.4057 15.2479 15.7969 16.0698 15.0379 16.0698C14.2831 16.0698 13.6743 15.2479 13.6743 14.2303C13.6743 13.2238 14.2831 12.4019 15.0379 12.4019ZM15.0379 22.9137C14.2831 22.9137 13.6743 22.0918 13.6743 21.0742C13.6743 20.0677 14.2831 19.2458 15.0379 19.2458C15.7969 19.2458 16.4057 20.0677 16.4057 21.0742C16.4057 22.0918 15.7969 22.9137 15.0379 22.9137Z" fill="white"/>
<path d="M63.545 10.3244C60.2485 10.3244 57.5756 13.9085 57.5756 18.3285C57.5756 22.7515 60.2485 26.3355 63.545 26.3355C66.8436 26.3355 69.5166 22.7515 69.5166 18.3285C69.5166 13.9085 66.8436 10.3244 63.545 10.3244ZM63.545 24.3142C61.0806 24.3142 59.0831 21.6359 59.0831 18.3285C59.0831 15.0241 61.0806 12.3458 63.545 12.3458C66.0116 12.3458 68.0091 15.0241 68.0091 18.3285C68.0091 21.6359 66.0116 24.3142 63.545 24.3142ZM76.5682 10.3244C73.2718 10.3244 70.5987 13.9085 70.5987 18.3285V33.2213H72.1063V23.5986C73.2008 25.2648 74.7835 26.3355 76.5682 26.3355C79.8667 26.3355 82.5399 22.7515 82.5399 18.3285C82.5399 13.9085 79.8667 10.3244 76.5682 10.3244ZM76.5682 24.3142C74.1038 24.3142 72.1063 21.6359 72.1063 18.3285C72.1063 15.0241 74.1038 12.3458 76.5682 12.3458C79.0349 12.3458 81.0324 15.0241 81.0324 18.3285C81.0324 21.6359 79.0349 24.3142 76.5682 24.3142ZM89.5914 10.3244C86.2949 10.3244 83.6221 13.9085 83.6221 18.3285V33.2213H85.1294V23.5986C86.2242 25.2648 87.8067 26.3355 89.5914 26.3355C92.89 26.3355 95.5631 22.7515 95.5631 18.3285C95.5631 13.9085 92.89 10.3244 89.5914 10.3244ZM89.5914 24.3142C87.1269 24.3142 85.1294 21.6359 85.1294 18.3285C85.1294 15.0241 87.1269 12.3458 89.5914 12.3458C92.0582 12.3458 94.0557 15.0241 94.0557 18.3285C94.0557 21.6359 92.0582 24.3142 89.5914 24.3142ZM102.615 10.3244C99.3182 10.3244 96.6452 13.9085 96.6452 18.3285C96.6452 22.7515 99.3182 26.3355 102.615 26.3355H107.325V24.3142H102.615C101.656 24.3142 100.772 23.9004 100.044 23.2099L107.325 13.4613C106.232 11.5658 104.539 10.3244 102.615 10.3244ZM98.9762 21.7785C98.4612 20.8026 98.1527 19.6174 98.1527 18.3285C98.1527 15.0241 100.15 12.3458 102.615 12.3458C103.574 12.3458 104.443 12.7875 105.169 13.4809L98.9762 21.7785ZM45.3301 16.6093C45.3301 21.9827 48.5764 26.3355 52.5798 26.3355H56.0326V24.3142H52.5798C49.4063 24.3142 46.8375 20.8671 46.8375 16.6093C46.8375 12.3598 49.4063 8.91272 52.5798 8.91272H56.0326V6.89136H52.5798C48.5764 6.89136 45.3301 11.2443 45.3301 16.6093ZM114.393 24.3142C111.929 24.3142 109.931 21.6359 109.931 18.3285V6.89136H108.424V18.3285C108.424 22.7515 111.097 26.3355 114.393 26.3355H116.683V24.3142H114.393Z" fill="white"/>
</svg>
