<svg width="106" height="26" viewBox="0 0 106 26" fill="none" xmlns="http://www.w3.org/2000/svg">
<g clip-path="url(#clip0_573_1558)">
<path d="M93.0957 8.65738C93.6859 8.65738 94.1716 8.34405 94.2372 7.93925L94.8199 1.21056C94.8199 0.545492 94.0569 -0.000488281 93.0976 -0.000488281C92.1392 -0.000488281 91.377 0.545489 91.377 1.21068L91.9593 7.93925C92.0233 8.34393 92.5091 8.65738 93.0977 8.65738H93.0957ZM89.5344 10.7591C89.8305 10.2378 89.8081 9.65198 89.4961 9.39171L84.0801 5.51212C83.517 5.17911 82.6726 5.57994 82.1934 6.42856C81.7126 7.2761 81.7979 8.22268 82.3594 8.55582L88.3566 11.4072C88.7315 11.5491 89.2427 11.276 89.5363 10.7551L89.5344 10.7591ZM96.6602 10.7555C96.9557 11.2763 97.4643 11.5496 97.8395 11.4076L103.837 8.55618C104.402 8.22316 104.482 7.27647 104.006 6.42893C103.524 5.58115 102.678 5.17947 102.117 5.51248L96.7004 9.39207C96.3907 9.65197 96.3677 10.2383 96.6621 10.7594L96.6602 10.7555ZM93.0957 17.0625C93.6859 17.0625 94.1716 17.3732 94.2372 17.7784L94.8199 24.5061C94.8199 25.1732 94.0569 25.718 93.0976 25.718C92.1392 25.718 91.377 25.1732 91.377 24.5061L91.9593 17.7784C92.0233 17.3732 92.5091 17.0625 93.0977 17.0625H93.0957ZM96.6602 14.9604C96.9557 14.4381 97.4643 14.1672 97.8395 14.3108L103.837 17.1603C104.402 17.4936 104.482 18.4412 104.006 19.2894C103.524 20.1345 102.678 20.5372 102.117 20.2047L96.7004 16.3287C96.3907 16.0667 96.3677 15.4801 96.6621 14.9593H96.6597M89.5344 14.9597C89.8305 15.4801 89.8081 16.0667 89.4961 16.3292L84.0801 20.205C83.517 20.5376 82.6726 20.1348 82.1934 19.2898C81.7126 18.4415 81.7979 17.494 82.3594 17.1606L88.3566 14.3112C88.7315 14.1676 89.2427 14.4384 89.5363 14.9609H89.5344" fill="white"/>
<path d="M58.933 16.3164C58.933 16.5229 58.915 16.7359 58.8596 16.9229C58.6299 17.6997 57.8423 18.3566 56.8569 18.3566C56.0352 18.3566 55.3826 17.88 55.3826 16.8734C55.3826 15.3329 57.0432 14.9074 58.9335 14.9181L58.933 16.3163V16.3164ZM61.8979 13.6317C61.8979 11.0913 60.8349 8.85602 57.2432 8.85602C55.3995 8.85602 53.9362 9.38483 53.1375 9.85614L53.7224 11.8984C54.4524 11.4278 55.6158 11.0383 56.7167 11.0383C58.5386 11.0331 58.8369 12.0918 58.8369 12.7693V12.9297C54.8656 12.9237 52.3552 14.3279 52.3552 17.1884C52.3552 18.9363 53.6338 20.5734 55.8564 20.5734C57.2221 20.5734 58.366 20.0168 59.0506 19.1242H59.1181C59.1181 19.1242 59.5711 21.062 62.0718 20.3206C61.9413 19.5147 61.8984 18.6545 61.8984 17.62L61.898 13.6317M0.0205078 5.39648C0.0205078 5.39648 2.61567 16.2553 3.03007 18.0176C3.51349 20.0746 4.38473 20.8319 6.89549 20.3206L8.51583 13.5886C8.92671 11.9156 9.20168 10.7228 9.46643 9.02265H9.51251C9.69838 10.7408 9.96207 11.9207 10.3002 13.5941C10.3002 13.5941 10.9595 16.6505 11.2977 18.2553C11.6363 19.8596 12.5786 20.8714 15.0382 20.3206L18.8994 5.396H15.7829L14.4641 11.8489C14.1095 13.7265 13.7881 15.1953 13.54 16.9126H13.496C13.2706 15.2104 12.9836 13.8015 12.6235 11.9717L11.2516 5.396H8.00385L6.53551 11.806C6.11993 13.7543 5.73022 15.327 5.48334 16.9871H5.43843C5.18497 15.4238 4.84757 13.4465 4.48243 11.5614C4.48243 11.5614 3.61071 6.97643 3.30411 5.396L0.0205078 5.39648ZM24.7946 16.3164C24.7946 16.5229 24.7767 16.7359 24.7205 16.9229C24.4912 17.6997 23.7031 18.3566 22.7177 18.3566C21.8959 18.3566 21.2443 17.88 21.2443 16.8734C21.2443 15.3329 22.9044 14.9074 24.795 14.9181L24.7946 16.3163V16.3164ZM27.7592 13.6317C27.7592 11.0913 26.6962 8.85602 23.1052 8.85602C21.261 8.85602 19.7965 9.38483 18.9983 9.85614L19.5826 11.8984C20.3124 11.4278 21.4758 11.0383 22.5771 11.0383C24.4002 11.0331 24.6986 12.0918 24.6986 12.7693V12.9297C20.7256 12.9237 18.2164 14.3279 18.2164 17.1884C18.2164 18.9363 19.4943 20.5734 21.7152 20.5734C23.0828 20.5734 24.226 20.0168 24.9114 19.1242H24.9782C24.9782 19.1242 25.4324 21.062 27.9325 20.3206C27.8017 19.5147 27.7592 18.6545 27.7592 17.62V13.6317ZM32.7069 17.1525V5.39648H29.7384V20.3211H32.7069V17.1525ZM71.5392 5.39648V16.4061C71.5392 17.9247 71.8196 18.9875 72.4174 19.6379C72.9412 20.2066 73.8019 20.5746 74.8341 20.5746C75.712 20.5746 76.5752 20.4036 76.9825 20.2493L76.9442 17.8812C76.6411 17.9569 76.2931 18.0181 75.8168 18.0181C74.8053 18.0181 74.467 17.3564 74.467 15.9937V11.7812H77.052V8.92529H74.467V5.39648H71.5392ZM63.8773 9.1092V20.3211H66.9394V14.5804C66.9394 14.2701 66.9577 13.9997 67.0058 13.7524C67.2323 12.5493 68.1329 11.7812 69.4264 11.7812C69.7809 11.7812 70.0348 11.8206 70.3097 11.8605V8.92529C70.079 8.87835 69.9224 8.85638 69.6353 8.85638C68.4926 8.85638 67.1925 9.60932 66.6469 11.2244H66.5641V9.1092H63.8773ZM34.7853 9.1092V20.3211H37.7687V13.7464C37.7687 13.4379 37.8042 13.1116 37.9088 12.8288C38.1561 12.1668 38.7594 11.3916 39.7221 11.3916C40.9265 11.3916 41.4889 12.4308 41.4889 13.9307V20.3203H44.4699V13.6655C44.4699 13.3711 44.5093 13.0163 44.5945 12.7567C44.8393 12.0033 45.4892 11.3907 46.3843 11.3907C47.6047 11.3907 48.1905 12.4117 48.1905 14.1772V20.3199H51.1735V13.716C51.1735 10.2338 49.4418 8.8553 47.4868 8.8553C46.6217 8.8553 45.9382 9.07655 45.3201 9.46335C44.8011 9.78988 44.3355 10.2525 43.9294 10.8607H43.8853C43.4139 9.65242 42.3047 8.8559 40.8593 8.8559C39.0024 8.8559 38.1678 9.81713 37.6616 10.6323H37.6172V9.10884H34.7853" fill="white"/>
<path d="M105.341 19.7761H105.386C105.445 19.7761 105.484 19.7508 105.484 19.7134C105.484 19.6708 105.448 19.6476 105.392 19.6476C105.373 19.6476 105.354 19.6516 105.341 19.6516V19.7771V19.7759L105.341 19.7761ZM105.334 20.0783H105.175V19.5507C105.211 19.5435 105.295 19.5307 105.402 19.5307C105.519 19.5307 105.572 19.5475 105.61 19.5739C105.642 19.5969 105.666 19.6363 105.666 19.6895C105.666 19.7436 105.617 19.7895 105.545 19.8095V19.8163C105.604 19.8322 105.636 19.8757 105.652 19.9519C105.668 20.028 105.678 20.0591 105.688 20.0787H105.509C105.493 20.0591 105.484 20.0124 105.473 19.9658C105.463 19.9124 105.438 19.8857 105.385 19.8857H105.333L105.334 20.0783ZM105.399 19.3788C105.172 19.3788 105 19.5683 105 19.8098C105 20.0451 105.172 20.237 105.406 20.237C105.64 20.241 105.812 20.0452 105.812 19.8059C105.812 19.5678 105.64 19.3788 105.403 19.3788H105.399ZM105.41 19.2356C105.727 19.2356 105.98 19.4908 105.98 19.8058C105.98 20.1246 105.727 20.3801 105.405 20.3801C105.083 20.3801 104.827 20.1242 104.827 19.8059C104.827 19.4908 105.084 19.2357 105.405 19.2357H105.409" fill="white"/>
</g>
<defs>
<clipPath id="clip0_573_1558">
<rect width="106" height="25.7184" fill="white" transform="translate(0 -0.000488281)"/>
</clipPath>
</defs>
</svg>
