<svg id="Layer_1" data-name="Layer 1" xmlns="http://www.w3.org/2000/svg" viewBox="0 0 141.26 42.57"><defs><style>.cls-1{fill:#a4a5a5;}</style></defs><title>Logos</title><path class="cls-1" d="M0,11.39,4.08,28.13c.65,2.73,1.83,3.73,5.23,3.05l2.2-8.93c.55-2.21.93-3.8,1.28-6.05h.07a58.12,58.12,0,0,0,1.06,6.06s.9,4.06,1.35,6.18,1.74,3.47,5.07,2.74l5.23-19.79H21.35L19.56,20c-.48,2.49-.91,4.44-1.25,6.71h-.06c-.3-2.25-.69-4.12-1.18-6.55l-1.86-8.72h-4.4l-2,8.5c-.56,2.59-1.09,4.67-1.42,6.87H7.34C7,24.69,6.54,22.07,6,19.57L4.45,11.39Zm40.25,0V31.18h4V11.39Zm56.61,0V26c0,2,.38,3.42,1.19,4.29a4.49,4.49,0,0,0,3.28,1.24,9.7,9.7,0,0,0,2.9-.43l0-3.14a6.14,6.14,0,0,1-1.52.18c-1.37,0-1.83-.88-1.83-2.69V19.86h3.5V16.07h-3.5V11.39ZM31.27,16A11.61,11.61,0,0,0,25.7,17.3L26.49,20a8.21,8.21,0,0,1,4.06-1.14c2.47,0,2.87,1.4,2.87,2.3v.21c-5.38,0-8.78,1.85-8.78,5.65a4.48,4.48,0,0,0,4.74,4.49,5.41,5.41,0,0,0,4.33-1.92h.09s.62,2.57,4,1.58a22.66,22.66,0,0,1-.23-3.58V22.31c0-3.37-1.44-6.33-6.3-6.33Zm24,0A4.69,4.69,0,0,0,51,18.33h-.06v-2H47.08V31.18h4.05V22.46a3.48,3.48,0,0,1,.18-1.21,2.75,2.75,0,0,1,2.46-1.91c1.63,0,2.39,1.38,2.39,3.37v8.47h4V22.36a4.37,4.37,0,0,1,.17-1.21,2.54,2.54,0,0,1,2.42-1.81c1.66,0,2.45,1.35,2.45,3.7v8.14h4V22.42c0-4.61-2.34-6.44-5-6.44a5.44,5.44,0,0,0-2.94.8,6.38,6.38,0,0,0-1.88,1.86h-.06A4.23,4.23,0,0,0,55.31,16ZM77.5,16a11.56,11.56,0,0,0-5.56,1.32L72.73,20a8.21,8.21,0,0,1,4.06-1.14c2.47,0,2.87,1.4,2.87,2.3v.21c-5.38,0-8.78,1.85-8.78,5.65a4.48,4.48,0,0,0,4.74,4.49A5.41,5.41,0,0,0,80,29.6H80s.61,2.57,4,1.58a21.53,21.53,0,0,1-.23-3.58V22.31c0-3.37-1.44-6.33-6.31-6.33Zm16.78,0a4.38,4.38,0,0,0-4,3.14h-.12V16.31H86.49V31.18h4.14V23.57a6.12,6.12,0,0,1,.09-1.1A3.14,3.14,0,0,1,94,19.86a8.17,8.17,0,0,1,1.2.1V16.07a4.22,4.22,0,0,0-.92-.09ZM33.55,24v1.85a2.69,2.69,0,0,1-.1.81,2.82,2.82,0,0,1-2.71,1.9,1.84,1.84,0,0,1-2-2c0-2,2.25-2.61,4.81-2.59Zm46.24,0v1.85a2.69,2.69,0,0,1-.1.81A2.82,2.82,0,0,1,77,28.58a1.84,1.84,0,0,1-2-2c0-2,2.25-2.61,4.81-2.59Z"/><path class="cls-1" d="M126.06,4.23c-1.3,0-2.33.72-2.33,1.61l.79,8.92a1.73,1.73,0,0,0,3.09,0l.79-8.92c0-.89-1-1.61-2.34-1.61Zm-12.84,7.16a2.49,2.49,0,0,0-1.93,1.37c-.65,1.12-.53,2.38.23,2.82l8.12,3.78a1.47,1.47,0,0,0,1.6-.86h0a1.44,1.44,0,0,0-.06-1.81l-7.33-5.15a1.15,1.15,0,0,0-.63-.15Zm25.69,0a1.13,1.13,0,0,0-.63.15l-7.34,5.15a1.45,1.45,0,0,0-.05,1.81h0a1.46,1.46,0,0,0,1.59.86l8.13-3.78c.76-.44.87-1.7.23-2.82a2.49,2.49,0,0,0-1.93-1.37Zm-19,11.77a1,1,0,0,0-.3.05L111.52,27c-.76.44-.88,1.7-.23,2.82s1.8,1.66,2.56,1.22l7.34-5.14a1.47,1.47,0,0,0,0-1.82h0a1.67,1.67,0,0,0-1.3-.91Zm12.24,0a1.67,1.67,0,0,0-1.29.91h0a1.47,1.47,0,0,0,.05,1.82L138.28,31c.76.44,1.9-.09,2.56-1.22s.53-2.38-.23-2.82l-8.12-3.78a1.06,1.06,0,0,0-.31-.05Zm-6.12,3.7a1.46,1.46,0,0,0-1.54.95l-.79,8.92c0,.89,1,1.61,2.33,1.61s2.34-.72,2.34-1.61l-.79-8.92a1.46,1.46,0,0,0-1.55-.95Z"/></svg>